<svg xmlns="http://www.w3.org/2000/svg" viewBox="100 115 1100 100" fill="none">
<path d="M317.828 191.84C317.508 192.88 317.348 193.92 317.348 194.96C317.348 195.84 317.468 196.6 317.708 197.24C317.948 197.8 318.188 198.28 318.428 198.68C318.748 199 318.948 199.24 319.028 199.4C319.828 200.2 320.228 201 320.228 201.8C320.228 201.96 320.148 202.36 319.988 203C319.668 204.12 318.948 204.92 317.828 205.4C316.788 205.8 315.148 206 312.908 206H284.468C282.788 206 281.468 205.72 280.508 205.16C279.628 204.6 279.188 203.84 279.188 202.88C279.188 202.4 279.308 201.88 279.548 201.32C279.788 200.68 280.108 200.2 280.508 199.88C280.988 199.48 281.628 199.04 282.428 198.56C283.708 197.84 284.748 197.04 285.548 196.16C286.348 195.28 287.028 193.84 287.588 191.84L290.708 181.52H271.988L268.748 188.36C267.388 191.32 266.708 193.64 266.708 195.32C266.708 196.28 266.868 197.08 267.188 197.72C267.508 198.28 267.988 198.88 268.628 199.52C269.188 200.16 269.548 200.72 269.708 201.2C269.948 201.6 269.988 202.16 269.828 202.88C269.508 204.08 268.828 204.92 267.788 205.4C266.828 205.8 265.268 206 263.108 206H245.228C243.388 206 241.988 205.68 241.028 205.04C240.068 204.32 239.588 203.4 239.588 202.28C239.588 201 240.068 200 241.028 199.28C241.908 198.48 243.268 197.64 245.108 196.76C247.508 195.56 249.428 194.4 250.868 193.28C252.308 192.08 253.548 190.44 254.588 188.36L275.948 144.08C279.228 137.2 283.068 132.24 287.468 129.2C291.948 126.08 297.828 124.52 305.108 124.52C313.268 124.52 319.588 126.2 324.068 129.56C328.548 132.84 330.788 137.44 330.788 143.36C330.788 145.84 330.388 148.4 329.588 151.04L317.828 191.84ZM294.308 169.52L300.668 148.4C300.988 147.44 301.148 146.44 301.148 145.4C301.148 143.88 300.708 142.76 299.828 142.04C299.028 141.24 297.868 140.84 296.348 140.84C294.428 140.84 292.788 141.4 291.428 142.52C290.068 143.64 288.708 145.64 287.348 148.52L277.508 169.52H294.308ZM420.605 126.08C423.885 126.08 425.525 127.12 425.525 129.2C425.525 129.76 425.485 130.16 425.405 130.4C425.165 131.2 424.805 131.84 424.325 132.32C423.845 132.72 423.165 133.2 422.285 133.76C421.085 134.48 420.085 135.28 419.285 136.16C418.485 137.04 417.805 138.4 417.245 140.24L402.365 193.52C401.005 198.32 399.285 201.68 397.205 203.6C395.205 205.52 392.405 206.48 388.805 206.48C385.605 206.48 382.925 205.56 380.765 203.72C378.685 201.8 376.725 198.88 374.885 194.96L356.765 156.8L346.685 191.84C346.445 192.88 346.325 193.8 346.325 194.6C346.325 195.64 346.485 196.52 346.805 197.24C347.205 197.88 347.725 198.56 348.365 199.28C349.245 200.32 349.685 201.2 349.685 201.92C349.685 202.4 349.645 202.76 349.565 203C349.245 204.12 348.525 204.92 347.405 205.4C346.285 205.8 344.605 206 342.365 206H329.285C326.005 206 324.365 204.96 324.365 202.88C324.365 202.32 324.405 201.92 324.485 201.68C324.725 200.88 325.085 200.28 325.565 199.88C326.045 199.4 326.725 198.88 327.605 198.32C328.805 197.6 329.805 196.8 330.605 195.92C331.405 195.04 332.085 193.68 332.645 191.84L347.885 137.96L345.965 134C345.165 132.4 344.765 131 344.765 129.8C344.765 127.32 346.365 126.08 349.565 126.08H367.325C369.885 126.08 371.805 126.68 373.085 127.88C374.445 129 375.885 131.04 377.405 134L394.925 169.16L403.205 140.24C403.445 139.12 403.565 138.2 403.565 137.48C403.565 136.44 403.365 135.6 402.965 134.96C402.645 134.24 402.165 133.52 401.525 132.8C400.645 131.76 400.205 130.88 400.205 130.16C400.205 129.68 400.245 129.32 400.325 129.08C400.645 127.96 401.365 127.2 402.485 126.8C403.605 126.32 405.285 126.08 407.525 126.08H420.605ZM522.825 126.08C524.505 126.08 525.785 126.36 526.665 126.92C527.625 127.48 528.105 128.2 528.105 129.08C528.105 129.48 527.985 130 527.745 130.64C527.505 131.2 527.145 131.72 526.665 132.2C526.265 132.6 525.865 132.92 525.465 133.16C525.145 133.32 524.905 133.48 524.745 133.64C523.465 134.36 522.425 135.16 521.625 136.04C520.825 136.92 520.145 138.28 519.585 140.12L504.825 191.84C504.505 192.88 504.345 193.88 504.345 194.84C504.345 195.8 504.465 196.56 504.705 197.12C505.025 197.68 505.465 198.4 506.025 199.28C506.105 199.36 506.305 199.68 506.625 200.24C507.025 200.72 507.225 201.24 507.225 201.8C507.225 201.96 507.145 202.36 506.985 203C506.585 204.12 505.825 204.92 504.705 205.4C503.585 205.8 501.905 206 499.665 206H471.465C469.785 206 468.465 205.72 467.505 205.16C466.625 204.6 466.185 203.84 466.185 202.88C466.185 202.4 466.305 201.88 466.545 201.32C466.865 200.68 467.305 200.16 467.865 199.76C468.425 199.28 468.985 198.88 469.545 198.56C470.825 197.84 471.865 197.04 472.665 196.16C473.465 195.2 474.145 193.76 474.705 191.84L480.465 171.8H459.225L453.465 191.84C453.145 192.88 452.985 193.88 452.985 194.84C452.985 195.8 453.105 196.56 453.345 197.12C453.665 197.68 454.105 198.4 454.665 199.28C454.745 199.36 454.945 199.68 455.265 200.24C455.665 200.72 455.865 201.24 455.865 201.8C455.865 201.96 455.785 202.36 455.625 203C455.225 204.12 454.465 204.92 453.345 205.4C452.225 205.8 450.545 206 448.305 206H420.105C418.425 206 417.145 205.72 416.265 205.16C415.305 204.6 414.825 203.84 414.825 202.88C414.825 202.4 414.945 201.88 415.185 201.32C415.505 200.68 415.945 200.16 416.505 199.76C417.065 199.28 417.625 198.88 418.185 198.56C419.465 197.84 420.505 197.04 421.305 196.16C422.105 195.2 422.785 193.76 423.345 191.84L438.105 140.12C438.425 139.08 438.585 138.08 438.585 137.12C438.585 136.24 438.425 135.52 438.105 134.96C437.865 134.32 437.505 133.6 437.025 132.8C436.705 132.4 436.425 132 436.185 131.6C435.945 131.12 435.825 130.64 435.825 130.16C435.825 130 435.905 129.6 436.065 128.96C436.385 127.92 437.105 127.2 438.225 126.8C439.345 126.32 441.025 126.08 443.265 126.08H471.465C473.145 126.08 474.425 126.36 475.305 126.92C476.265 127.48 476.745 128.2 476.745 129.08C476.745 129.48 476.625 130 476.385 130.64C476.145 131.2 475.785 131.72 475.305 132.2C474.905 132.6 474.505 132.92 474.105 133.16C473.785 133.32 473.545 133.48 473.385 133.64C472.105 134.36 471.065 135.16 470.265 136.04C469.465 136.92 468.785 138.28 468.225 140.12L462.585 159.8H483.825L489.465 140.12C489.785 139.08 489.945 138.08 489.945 137.12C489.945 136.24 489.785 135.52 489.465 134.96C489.225 134.32 488.865 133.6 488.385 132.8C488.065 132.4 487.785 132 487.545 131.6C487.305 131.12 487.185 130.64 487.185 130.16C487.185 130 487.265 129.6 487.425 128.96C487.745 127.92 488.465 127.2 489.585 126.8C490.705 126.32 492.385 126.08 494.625 126.08H522.825ZM545.863 122.6C549.383 122.6 552.423 123.92 554.983 126.56C557.543 129.2 558.823 132.68 558.823 137C558.823 138.68 558.583 140.48 558.103 142.4C557.223 146 555.623 149.12 553.303 151.76C551.063 154.32 548.463 156.28 545.503 157.64C542.543 158.92 539.663 159.56 536.863 159.56C533.583 159.56 531.943 158.6 531.943 156.68C531.943 156.2 531.983 155.84 532.063 155.6C532.303 154.72 532.783 154 533.503 153.44C534.223 152.8 535.343 151.96 536.863 150.92C538.623 149.64 539.903 148.6 540.703 147.8C541.503 147 541.903 146.04 541.903 144.92C541.903 144.2 541.663 143.48 541.183 142.76C540.783 142.04 540.103 141.08 539.143 139.88C537.863 138.2 536.903 136.8 536.263 135.68C535.623 134.56 535.303 133.28 535.303 131.84C535.303 130.96 535.423 130.12 535.663 129.32C536.303 127.16 537.503 125.52 539.263 124.4C541.023 123.2 543.223 122.6 545.863 122.6ZM599.349 125.36C603.829 125.36 607.949 125.92 611.709 127.04C615.549 128.08 619.429 129.76 623.349 132.08L626.109 129.8C628.029 128.28 629.589 127.24 630.789 126.68C632.069 126.12 633.509 125.84 635.109 125.84C637.029 125.84 638.549 126.28 639.669 127.16C640.789 127.96 641.349 129.16 641.349 130.76C641.349 131.4 641.229 132.08 640.989 132.8L635.949 149.36C635.389 151.28 634.669 152.64 633.789 153.44C632.989 154.24 631.749 154.64 630.069 154.64C628.309 154.64 626.749 154.12 625.389 153.08C624.109 151.96 622.069 149.72 619.269 146.36C616.469 143.16 613.909 140.92 611.589 139.64C609.349 138.28 607.029 137.6 604.629 137.6C602.869 137.6 601.389 138.2 600.189 139.4C598.989 140.52 598.389 141.92 598.389 143.6C598.389 145.52 599.349 147.32 601.269 149C603.189 150.6 606.189 152.64 610.269 155.12C614.429 157.6 617.869 159.84 620.589 161.84C623.309 163.84 625.629 166.32 627.549 169.28C629.469 172.24 630.429 175.64 630.429 179.48C630.429 181.96 630.029 184.44 629.229 186.92C627.309 193.32 623.589 198.2 618.069 201.56C612.549 204.84 606.109 206.48 598.749 206.48C593.229 206.48 588.589 205.84 584.829 204.56C581.069 203.28 577.229 201.12 573.309 198.08L568.989 201.68C566.989 203.36 565.349 204.52 564.069 205.16C562.789 205.72 561.349 206 559.749 206C557.909 206 556.429 205.56 555.309 204.68C554.269 203.8 553.749 202.6 553.749 201.08C553.749 200.28 553.909 199.44 554.229 198.56L560.109 180.68C560.749 178.6 561.629 177.12 562.749 176.24C563.869 175.36 565.309 174.92 567.069 174.92C568.909 174.92 570.549 175.56 571.989 176.84C573.509 178.12 575.469 180.44 577.869 183.8C580.429 187.48 582.789 190.04 584.949 191.48C587.189 192.92 589.829 193.64 592.869 193.64C595.029 193.64 596.669 193.32 597.789 192.68C598.989 191.96 599.829 190.84 600.309 189.32C600.469 188.92 600.549 188.32 600.549 187.52C600.549 185.6 599.629 183.84 597.789 182.24C595.949 180.64 593.109 178.72 589.269 176.48C585.189 174 581.869 171.8 579.309 169.88C576.749 167.88 574.509 165.4 572.589 162.44C570.749 159.48 569.829 156 569.829 152C569.829 149.2 570.269 146.44 571.149 143.72C572.829 138.2 576.269 133.76 581.469 130.4C586.669 127.04 592.629 125.36 599.349 125.36ZM706.107 125.36C710.587 125.36 714.707 125.92 718.467 127.04C722.307 128.08 726.187 129.76 730.107 132.08L732.867 129.8C734.787 128.28 736.347 127.24 737.547 126.68C738.827 126.12 740.267 125.84 741.867 125.84C743.787 125.84 745.307 126.28 746.427 127.16C747.547 127.96 748.107 129.16 748.107 130.76C748.107 131.4 747.987 132.08 747.747 132.8L742.707 149.36C742.147 151.28 741.427 152.64 740.547 153.44C739.747 154.24 738.507 154.64 736.827 154.64C735.067 154.64 733.507 154.12 732.147 153.08C730.867 151.96 728.827 149.72 726.027 146.36C723.227 143.16 720.667 140.92 718.347 139.64C716.107 138.28 713.787 137.6 711.387 137.6C709.627 137.6 708.147 138.2 706.947 139.4C705.747 140.52 705.147 141.92 705.147 143.6C705.147 145.52 706.107 147.32 708.027 149C709.947 150.6 712.947 152.64 717.027 155.12C721.187 157.6 724.627 159.84 727.347 161.84C730.067 163.84 732.387 166.32 734.307 169.28C736.227 172.24 737.187 175.64 737.187 179.48C737.187 181.96 736.787 184.44 735.987 186.92C734.067 193.32 730.347 198.2 724.827 201.56C719.307 204.84 712.867 206.48 705.507 206.48C699.987 206.48 695.347 205.84 691.587 204.56C687.827 203.28 683.987 201.12 680.067 198.08L675.747 201.68C673.747 203.36 672.107 204.52 670.827 205.16C669.547 205.72 668.107 206 666.507 206C664.667 206 663.187 205.56 662.067 204.68C661.027 203.8 660.507 202.6 660.507 201.08C660.507 200.28 660.667 199.44 660.987 198.56L666.867 180.68C667.507 178.6 668.387 177.12 669.507 176.24C670.627 175.36 672.067 174.92 673.827 174.92C675.667 174.92 677.307 175.56 678.747 176.84C680.267 178.12 682.227 180.44 684.627 183.8C687.187 187.48 689.547 190.04 691.707 191.48C693.947 192.92 696.587 193.64 699.627 193.64C701.787 193.64 703.427 193.32 704.547 192.68C705.747 191.96 706.587 190.84 707.067 189.32C707.227 188.92 707.307 188.32 707.307 187.52C707.307 185.6 706.387 183.84 704.547 182.24C702.707 180.64 699.867 178.72 696.027 176.48C691.947 174 688.627 171.8 686.067 169.88C683.507 167.88 681.267 165.4 679.347 162.44C677.507 159.48 676.587 156 676.587 152C676.587 149.2 677.027 146.44 677.907 143.72C679.587 138.2 683.027 133.76 688.227 130.4C693.427 127.04 699.387 125.36 706.107 125.36ZM807.469 126.08C815.949 126.08 822.469 127.92 827.029 131.6C831.669 135.28 833.989 140.16 833.989 146.24C833.989 148.64 833.629 151.16 832.909 153.8C830.669 161.8 826.229 167.72 819.589 171.56C813.029 175.4 804.709 177.32 794.629 177.32H782.269L778.189 191.84C778.029 192.32 777.949 192.96 777.949 193.76C777.949 194.88 778.189 195.8 778.669 196.52C779.229 197.24 780.029 198.08 781.069 199.04C781.949 199.84 782.549 200.44 782.869 200.84C783.189 201.24 783.349 201.72 783.349 202.28C783.349 203.64 782.709 204.6 781.429 205.16C780.149 205.72 778.269 206 775.789 206H745.669C743.589 206 742.029 205.64 740.989 204.92C739.949 204.12 739.589 203.04 739.909 201.68C740.069 200.96 740.389 200.4 740.869 200C741.269 199.52 741.909 199 742.789 198.44C744.149 197.64 745.229 196.8 746.029 195.92C746.829 195.04 747.469 193.68 747.949 191.84L762.589 140.12C762.909 139.08 763.069 138.08 763.069 137.12C763.069 136.24 762.909 135.52 762.589 134.96C762.349 134.32 761.989 133.6 761.509 132.8C760.789 131.76 760.429 130.92 760.429 130.28C760.429 130.04 760.509 129.6 760.669 128.96C760.989 127.92 761.669 127.2 762.709 126.8C763.829 126.32 765.509 126.08 767.749 126.08H807.469ZM804.349 151.64C805.229 148.68 805.669 146.08 805.669 143.84C805.669 139.2 803.509 136.88 799.189 136.88H793.789L785.269 166.52H790.549C793.909 166.52 796.629 165.48 798.709 163.4C800.869 161.24 802.749 157.32 804.349 151.64ZM887.242 191.84C886.922 192.88 886.762 193.92 886.762 194.96C886.762 195.84 886.882 196.6 887.122 197.24C887.362 197.8 887.602 198.28 887.842 198.68C888.162 199 888.362 199.24 888.442 199.4C889.242 200.2 889.642 201 889.642 201.8C889.642 201.96 889.562 202.36 889.402 203C889.082 204.12 888.362 204.92 887.242 205.4C886.202 205.8 884.562 206 882.322 206H853.882C852.202 206 850.882 205.72 849.922 205.16C849.042 204.6 848.602 203.84 848.602 202.88C848.602 202.4 848.722 201.88 848.962 201.32C849.202 200.68 849.522 200.2 849.922 199.88C850.402 199.48 851.042 199.04 851.842 198.56C853.122 197.84 854.162 197.04 854.962 196.16C855.762 195.28 856.442 193.84 857.002 191.84L860.122 181.52H841.402L838.162 188.36C836.802 191.32 836.122 193.64 836.122 195.32C836.122 196.28 836.282 197.08 836.602 197.72C836.922 198.28 837.402 198.88 838.042 199.52C838.602 200.16 838.962 200.72 839.122 201.2C839.362 201.6 839.402 202.16 839.242 202.88C838.922 204.08 838.242 204.92 837.202 205.4C836.242 205.8 834.682 206 832.522 206H814.642C812.802 206 811.402 205.68 810.442 205.04C809.482 204.32 809.002 203.4 809.002 202.28C809.002 201 809.482 200 810.442 199.28C811.322 198.48 812.682 197.64 814.522 196.76C816.922 195.56 818.842 194.4 820.282 193.28C821.722 192.08 822.962 190.44 824.002 188.36L845.362 144.08C848.642 137.2 852.482 132.24 856.882 129.2C861.362 126.08 867.242 124.52 874.522 124.52C882.682 124.52 889.002 126.2 893.482 129.56C897.962 132.84 900.202 137.44 900.202 143.36C900.202 145.84 899.802 148.4 899.002 151.04L887.242 191.84ZM863.722 169.52L870.082 148.4C870.402 147.44 870.562 146.44 870.562 145.4C870.562 143.88 870.122 142.76 869.242 142.04C868.442 141.24 867.282 140.84 865.762 140.84C863.842 140.84 862.202 141.4 860.842 142.52C859.482 143.64 858.122 145.64 856.762 148.52L846.922 169.52H863.722ZM939.471 206.72C932.751 206.72 926.711 205.48 921.351 203C915.991 200.52 911.711 196.88 908.511 192.08C905.391 187.2 903.831 181.32 903.831 174.44C903.831 169.64 904.671 164.44 906.351 158.84C910.031 146.84 915.591 138.2 923.031 132.92C930.471 127.56 938.431 124.88 946.911 124.88C951.471 124.88 955.511 125.56 959.031 126.92C962.551 128.28 965.791 130.24 968.751 132.8L971.991 130.28C974.151 128.6 975.951 127.44 977.391 126.8C978.911 126.16 980.591 125.84 982.431 125.84C984.431 125.84 986.031 126.28 987.231 127.16C988.431 128.04 989.031 129.32 989.031 131C989.031 131.88 988.871 132.76 988.551 133.64L981.831 152.36C981.111 154.52 980.231 156.04 979.191 156.92C978.231 157.8 976.751 158.24 974.751 158.24C972.671 158.24 970.951 157.52 969.591 156.08C968.311 154.56 966.831 152 965.151 148.4C963.231 144.64 961.671 142.16 960.471 140.96C959.271 139.76 957.511 139.16 955.191 139.16C951.911 139.16 948.751 141.2 945.711 145.28C942.671 149.28 939.911 155.32 937.431 163.4C935.351 170.2 934.311 175.88 934.311 180.44C934.311 184.44 935.071 187.44 936.591 189.44C938.111 191.36 940.151 192.32 942.711 192.32C946.471 192.32 949.551 191.48 951.951 189.8C954.431 188.12 956.951 185.84 959.511 182.96C961.111 181.2 962.391 179.92 963.351 179.12C964.391 178.24 965.471 177.8 966.591 177.8C968.031 177.8 969.551 178.52 971.151 179.96C972.751 181.4 973.511 182.84 973.431 184.28C973.511 186.04 972.071 188.76 969.111 192.44C966.231 196.12 962.191 199.44 956.991 202.4C951.871 205.28 946.031 206.72 939.471 206.72ZM1057.99 126.08C1060.95 126.08 1063.23 126.72 1064.83 128C1066.51 129.28 1067.35 131.04 1067.35 133.28C1067.35 134.4 1067.19 135.48 1066.87 136.52L1063.75 147.68C1063.19 149.84 1062.35 151.36 1061.23 152.24C1060.19 153.04 1058.67 153.44 1056.67 153.44C1054.75 153.44 1053.23 153.04 1052.11 152.24C1051.07 151.36 1050.27 149.96 1049.71 148.04L1047.79 141.2C1047.39 139.76 1046.91 138.8 1046.35 138.32C1045.79 137.84 1044.71 137.6 1043.11 137.6H1030.51L1024.51 158.96H1029.79C1030.35 158.96 1031.11 158.56 1032.07 157.76L1036.15 154.16C1037.35 153.12 1038.39 152.36 1039.27 151.88C1040.15 151.4 1041.23 151.16 1042.51 151.16C1043.95 151.16 1045.11 151.56 1045.99 152.36C1046.95 153.08 1047.42 154.04 1047.42 155.24C1047.42 155.56 1047.35 156.04 1047.19 156.68L1042.27 173.36C1041.79 175.12 1040.95 176.44 1039.75 177.32C1038.63 178.12 1037.39 178.52 1036.03 178.52C1033.79 178.52 1032.11 177.36 1030.99 175.04L1028.95 170.84C1028.39 169.64 1027.51 169.04 1026.31 169.04H1021.63L1014.55 194.48H1025.11C1026.63 194.48 1027.95 194.2 1029.07 193.64C1030.27 193 1031.55 191.92 1032.91 190.4L1040.11 182.48C1041.39 181.12 1042.59 180.16 1043.71 179.6C1044.91 178.96 1046.35 178.64 1048.03 178.64C1049.79 178.64 1051.23 179.04 1052.35 179.84C1053.47 180.64 1054.03 181.84 1054.03 183.44C1054.03 184.08 1053.91 184.84 1053.67 185.72L1050.18 197.84C1049.31 200.88 1048.03 203 1046.35 204.2C1044.67 205.4 1042.23 206 1039.03 206H981.785C980.105 206 978.825 205.72 977.945 205.16C976.985 204.6 976.505 203.84 976.505 202.88C976.505 202.4 976.625 201.88 976.865 201.32C977.185 200.44 977.705 199.76 978.425 199.28C979.145 198.8 979.585 198.52 979.745 198.44C981.025 197.64 982.065 196.84 982.865 196.04C983.665 195.16 984.345 193.76 984.905 191.84L999.665 140.12C999.985 139.08 1000.15 138.12 1000.15 137.24C1000.15 136.28 999.985 135.48 999.665 134.84C999.425 134.2 999.025 133.52 998.465 132.8C997.745 131.76 997.385 130.92 997.385 130.28C997.385 130.04 997.465 129.6 997.625 128.96C997.945 127.92 998.665 127.2 999.785 126.8C1000.91 126.32 1002.55 126.08 1004.71 126.08H1057.99Z" fill="#0649D5"/>
</svg>